<?xml version="1.0" encoding="UTF-8" standalone="no"?>
<svg
   width="970"
   height="490"
   viewBox="50 235 970 490"
   version="1.1"
   id="svg4"
   sodipodi:docname="niks3.svg"
   inkscape:version="1.4 (e7c3feb1, 2024-10-09)"
   xmlns:inkscape="http://www.inkscape.org/namespaces/inkscape"
   xmlns:sodipodi="http://sodipodi.sourceforge.net/DTD/sodipodi-0.dtd"
   xmlns="http://www.w3.org/2000/svg"
   xmlns:svg="http://www.w3.org/2000/svg">
  <defs
     id="defs4" />
  <sodipodi:namedview
     id="namedview4"
     pagecolor="#ffffff"
     bordercolor="#000000"
     borderopacity="0.25"
     inkscape:showpageshadow="2"
     inkscape:pageopacity="0.0"
     inkscape:pagecheckerboard="0"
     inkscape:deskcolor="#d1d1d1"
     inkscape:zoom="0.64584625"
     inkscape:cx="486.958"
     inkscape:cy="449.79745"
     inkscape:window-width="1472"
     inkscape:window-height="490"
     inkscape:window-x="0"
     inkscape:window-y="34"
     inkscape:window-maximized="1"
     inkscape:current-layer="path3-cloud" />
  <g
     id="g4">
    <path
       d="M 582.12 536.25 L 582.08 582.50 L 569.04 582.78 L 556.00 583.06 L 556.00 443.00 L 570.25 443.00 L 584.50 443.00 L 612.75 490.11 L 641.00 537.21 L 641.00 443.00 L 668.00 443.00 L 668.00 583.05 L 638.50 582.50 L 623.78 558.00 C599.11,516.92 582.74,490.00 582.44,490.00 C582.29,490.00 582.14,510.81 582.12,536.25 Z M 764.80 559.00 L 765.10 582.00 L 737.00 582.00 L 737.00 443.00 L 765.32 443.00 L 764.82 469.25 C764.55,483.69 764.59,501.27 764.91,508.32 L 765.50 521.14 L 796.51 482.50 L 813.01 482.00 C822.08,481.73 829.64,481.57 829.82,481.65 C829.99,481.73 821.55,492.26 811.07,505.05 C800.58,517.84 792.00,528.65 792.00,529.08 C792.00,529.51 798.87,538.78 807.26,549.68 C815.66,560.58 824.68,572.31 827.32,575.75 L 832.12 582.00 L 798.37 582.00 L 782.93 560.81 C774.45,549.16 767.09,538.81 766.60,537.81 C766.10,536.82 765.43,536.00 765.10,536.00 C764.77,536.00 764.64,546.35 764.80,559.00 Z M 881.57 582.91 C870.66,584.92 854.91,583.81 841.25,580.08 L 837.00 578.92 L 837.00 567.46 C837.00,560.78 837.40,556.00 837.96,556.00 C838.49,556.00 841.14,556.87 843.85,557.94 C849.51,560.17 863.52,563.00 868.86,562.99 C873.73,562.99 879.34,561.35 882.06,559.16 C883.73,557.80 884.27,556.30 884.27,553.00 C884.27,547.29 881.47,544.84 872.36,542.59 C850.72,537.25 844.23,533.73 839.76,524.91 C835.79,517.08 835.23,509.88 837.91,501.05 C841.22,490.18 848.16,484.12 861.00,480.89 C868.71,478.95 886.69,479.35 895.50,481.66 L 902.50 483.50 L 902.78 494.75 C902.94,500.94 902.94,506.00 902.78,506.00 C902.63,506.00 900.18,505.12 897.34,504.04 C891.13,501.68 876.31,499.70 871.19,500.54 C862.68,501.95 860.00,504.15 860.00,509.76 C860.00,515.02 864.75,518.04 877.66,521.01 C899.19,525.96 909.00,535.66 909.00,552.00 C909.00,568.47 899.05,579.69 881.57,582.91 Z M 717.00 483.00 L 717.00 582.00 L 690.00 582.00 L 690.00 483.00 Z M 709.60 470.10 C702.42,473.35 696.14,472.05 690.58,466.14 C684.96,460.16 686.30,448.72 693.24,443.64 C697.31,440.65 706.53,440.28 710.76,442.94 C721.04,449.39 720.37,465.20 709.60,470.10 Z"
       fill="rgb(7,61,107)"
       id="niks-label" />
    <path
       d="M 961.87 565.36 C954.88,567.28 945.77,567.96 939.48,567.02 C931.76,565.87 922.96,563.07 922.39,561.57 C921.81,560.05 925.84,545.98 926.85,546.03 C927.21,546.05 929.97,546.94 933.00,548.00 C939.53,550.30 950.63,550.61 955.28,548.63 C961.84,545.83 965.01,539.60 962.99,533.48 C961.25,528.20 957.86,526.62 947.00,526.02 L 937.50 525.50 L 937.21 517.37 L 936.92 509.24 L 941.38 509.74 C947.91,510.48 955.24,508.41 958.63,504.86 C960.99,502.40 961.50,501.00 961.50,496.96 C961.50,492.92 961.00,491.55 958.73,489.27 C956.08,486.62 955.53,486.50 946.19,486.50 C937.45,486.50 935.85,486.79 931.04,489.29 C928.09,490.82 925.37,491.72 925.00,491.29 C924.27,490.43 922.00,480.71 922.00,478.44 C922.00,476.41 932.57,471.37 939.48,470.09 C963.00,465.74 980.00,476.08 980.00,494.74 C980.00,499.08 979.38,502.30 978.03,504.94 C975.99,508.94 969.51,515.00 967.27,515.00 C964.77,515.00 966.06,516.62 969.57,517.89 C974.28,519.59 979.97,524.68 981.65,528.70 C983.30,532.65 983.41,542.90 981.86,548.08 C979.51,555.91 971.72,562.64 961.87,565.36 Z"
       fill="#3b9ed5"
       id="three-label" />
    <!-- path2: N-shape outer boundary + inner cutout -->
    <!-- These two paths form a compound shape. In Inkscape:
         - Select both and use Path > Combine to create compound path with hole
         - Use Path > Break Apart to edit them separately again -->
    <g
       id="path2-group"
       fill="rgb(14,86,161)">
      <!-- Outer N-shape boundary -->
      <path
         d="M 293.57 713.07 C288.67,714.93 275.14,715.57 268.00,714.27 C265.23,713.77 255.67,709.27 249.50,705.57 C247.30,704.25 243.70,702.23 241.50,701.09 C236.23,698.36 228.63,693.86 228.00,693.10 C227.73,692.77 226.15,691.73 224.50,690.80 C215.33,685.59 212.21,683.75 209.50,681.96 C207.85,680.87 205.71,679.70 204.75,679.37 C203.79,679.04 203.00,678.42 203.00,677.99 C203.00,677.57 201.99,676.96 200.75,676.64 C199.51,676.32 196.10,674.47 193.16,672.53 C190.23,670.59 187.41,669.00 186.91,669.00 C186.41,669.00 186.00,668.60 186.00,668.12 C186.00,667.63 185.21,666.95 184.25,666.60 C183.29,666.25 181.60,665.40 180.50,664.70 C179.40,664.01 176.01,661.88 172.98,659.97 C169.94,658.06 166.56,655.94 165.48,655.25 C164.39,654.56 162.42,653.53 161.09,652.96 C159.77,652.40 156.71,650.60 154.29,648.97 C151.88,647.33 149.47,646.00 148.95,646.00 C148.43,646.00 148.00,645.59 148.00,645.10 C148.00,644.60 146.76,643.70 145.25,643.09 C143.74,642.49 141.15,641.11 139.50,640.03 C137.85,638.95 135.15,637.38 133.50,636.55 C131.85,635.72 127.57,633.25 124.00,631.05 C120.43,628.85 116.82,626.73 116.00,626.35 C115.18,625.96 112.70,624.50 110.50,623.09 C104.60,619.33 102.67,618.16 101.00,617.35 C100.18,616.95 97.87,615.47 95.87,614.06 C93.87,612.65 91.26,610.83 90.08,610.00 C86.40,607.45 78.40,599.48 77.71,597.70 C77.36,596.76 76.57,596.00 75.97,596.00 C75.37,596.00 75.16,595.55 75.50,595.00 C75.84,594.45 75.61,594.00 75.00,594.00 C74.39,594.00 74.14,593.59 74.45,593.09 C74.76,592.58 74.57,592.02 74.04,591.84 C73.50,591.65 72.85,590.38 72.60,589.00 C72.35,587.62 72.06,586.28 71.96,586.00 C71.85,585.72 71.84,585.10 71.93,584.60 C72.02,584.11 71.85,583.04 71.54,582.24 C70.79,580.29 70.79,384.15 71.53,382.94 C71.86,382.42 71.84,381.55 71.50,381.00 C71.16,380.45 71.41,380.00 72.05,380.00 C72.69,380.00 72.95,379.33 72.64,378.50 C72.32,377.67 72.53,377.00 73.09,377.00 C73.66,377.00 73.86,376.59 73.55,376.08 C73.24,375.57 73.64,374.50 74.44,373.70 C75.25,372.90 75.63,371.96 75.29,371.62 C74.95,371.28 75.19,371.00 75.83,371.00 C76.47,371.00 77.00,370.64 77.00,370.19 C77.00,368.98 86.42,359.43 88.34,358.70 C89.25,358.35 90.00,357.60 90.00,357.03 C90.00,356.46 90.68,356.00 91.50,356.00 C92.32,356.00 93.00,355.55 93.00,355.00 C93.00,354.45 93.68,354.00 94.50,354.00 C95.32,354.00 96.00,353.56 96.00,353.02 C96.00,352.48 97.12,351.76 98.50,351.41 C99.88,351.07 101.00,350.38 101.00,349.89 C101.00,349.40 101.61,349.00 102.35,349.00 C103.09,349.00 104.75,348.09 106.03,346.97 C107.32,345.86 109.41,344.68 110.68,344.36 C111.96,344.04 113.00,343.38 113.00,342.89 C113.00,342.40 113.68,342.00 114.50,342.00 C115.32,342.00 116.00,341.61 116.00,341.14 C116.00,340.66 118.03,339.50 120.50,338.55 C122.97,337.61 125.00,336.47 125.00,336.03 C125.00,335.58 126.12,334.93 127.50,334.59 C128.88,334.24 130.00,333.52 130.00,332.98 C130.00,332.44 130.61,332.00 131.35,332.00 C132.09,332.00 133.73,331.10 135.00,330.00 C136.27,328.90 137.91,328.00 138.65,328.00 C139.39,328.00 140.00,327.55 140.00,327.00 C140.00,326.45 140.64,326.00 141.43,326.00 C142.21,326.00 143.47,325.38 144.23,324.63 C144.98,323.88 146.58,322.95 147.80,322.56 C149.01,322.18 150.00,321.45 150.00,320.93 C150.00,320.42 150.68,320.00 151.50,320.00 C152.32,320.00 153.00,319.58 153.00,319.08 C153.00,318.57 154.57,317.64 156.50,317.00 C158.43,316.36 160.00,315.46 160.00,314.99 C160.00,314.52 161.57,313.56 163.50,312.86 C165.43,312.17 167.00,311.27 167.00,310.88 C167.00,310.48 168.53,309.65 170.40,309.03 C172.27,308.42 174.81,307.03 176.05,305.96 C177.29,304.88 178.91,304.00 179.65,304.00 C180.39,304.00 181.00,303.55 181.00,303.00 C181.00,302.45 181.91,302.00 183.03,302.00 C184.15,302.00 185.31,301.35 185.62,300.55 C185.93,299.75 187.67,298.61 189.49,298.00 C191.31,297.40 193.81,296.03 195.05,294.96 C196.29,293.88 197.91,293.00 198.65,293.00 C199.39,293.00 200.00,292.58 200.00,292.08 C200.00,291.57 201.57,290.64 203.50,290.00 C205.43,289.36 207.00,288.43 207.00,287.92 C207.00,287.42 207.68,287.00 208.50,287.00 C209.32,287.00 210.00,286.55 210.00,286.00 C210.00,285.45 210.61,285.00 211.35,285.00 C212.09,285.00 213.73,284.10 215.00,283.00 C216.27,281.90 217.91,281.00 218.65,281.00 C219.39,281.00 220.00,280.59 220.00,280.08 C220.00,279.58 222.02,278.39 224.50,277.45 C226.98,276.50 229.00,275.34 229.00,274.86 C229.00,274.39 229.68,274.00 230.50,274.00 C231.32,274.00 232.00,273.58 232.00,273.06 C232.00,272.55 233.57,271.56 235.50,270.86 C237.43,270.17 239.00,269.24 239.00,268.80 C239.00,268.36 239.61,268.00 240.35,268.00 C241.09,268.00 242.73,267.10 244.00,266.00 C245.27,264.90 246.87,264.00 247.57,264.00 C248.26,264.00 248.98,263.65 249.17,263.22 C249.35,262.79 252.09,261.14 255.25,259.55 C258.41,257.97 261.00,256.30 261.00,255.84 C261.00,255.38 261.67,255.00 262.50,255.00 C263.33,255.00 264.00,254.55 264.00,254.00 C264.00,253.45 264.64,253.00 265.43,253.00 C266.21,253.00 267.46,252.40 268.20,251.66 C270.34,249.52 273.19,248.28 277.74,247.53 C280.08,247.14 282.21,246.48 282.47,246.05 C283.12,244.99 291.36,245.04 292.05,246.11 C292.35,246.58 294.26,247.09 296.30,247.23 C298.33,247.38 300.00,247.79 300.00,248.14 C300.00,248.83 304.99,250.44 306.25,250.16 C306.66,250.07 307.00,250.42 307.00,250.94 C307.00,251.45 308.58,252.44 310.50,253.14 C312.42,253.83 314.00,254.76 314.00,255.20 C314.00,255.64 314.65,256.00 315.44,256.00 C317.36,256.00 324.00,259.96 324.00,261.10 C324.00,261.59 324.34,261.95 324.75,261.88 C326.67,261.58 327.92,262.19 330.36,264.64 C331.81,266.09 333.00,266.95 333.00,266.56 C333.00,266.18 333.71,266.56 334.57,267.43 C335.44,268.29 336.79,269.00 337.57,269.00 C338.36,269.00 339.00,269.36 339.00,269.80 C339.00,270.23 342.04,272.14 345.75,274.03 C349.46,275.92 353.32,278.21 354.33,279.13 C356.08,280.72 355.95,280.94 351.37,284.09 C348.73,285.90 344.90,288.90 342.85,290.75 L 339.13 294.12 L 335.93 292.31 C330.00,288.95 329.02,288.33 327.26,286.80 C326.29,285.97 322.58,283.82 319.00,282.04 C315.42,280.25 310.56,277.49 308.20,275.89 C305.83,274.30 303.53,273.00 303.08,273.00 C302.64,273.00 301.04,272.03 299.53,270.84 C295.82,267.92 282.86,266.91 280.19,269.33 C279.22,270.21 276.87,271.63 274.96,272.49 C273.06,273.36 270.15,274.94 268.50,276.02 C266.85,277.10 264.83,278.30 264.00,278.69 C263.17,279.08 260.70,280.55 258.50,281.95 C256.30,283.35 253.60,285.04 252.50,285.69 C251.00,286.58 217.70,306.47 205.00,314.05 C200.59,316.68 169.55,334.72 167.23,336.00 C165.73,336.83 164.27,337.76 164.00,338.09 C163.73,338.41 161.02,340.02 158.00,341.68 C151.60,345.17 142.38,350.52 137.16,353.78 C135.15,355.03 131.70,356.94 129.50,358.02 C119.85,362.76 99.70,376.02 97.40,379.14 C96.77,379.99 96.21,380.71 95.72,381.48 C91.94,387.40 91.97,395.74 92.21,480.99 L 92.23 486.57 C92.48,573.90 92.62,580.72 94.25,583.60 C96.83,588.18 102.47,593.53 107.25,595.95 C108.76,596.71 110.00,597.74 110.00,598.23 C110.00,598.72 110.45,598.84 111.00,598.50 C111.55,598.16 112.00,598.36 112.00,598.94 C112.00,599.52 112.68,600.00 113.50,600.00 C114.32,600.00 115.00,600.48 115.00,601.06 C115.00,601.64 115.45,601.84 116.00,601.50 C116.55,601.16 117.00,601.36 117.00,601.94 C117.00,602.52 117.79,603.00 118.75,603.00 C119.71,603.00 121.81,604.13 123.41,605.50 C125.00,606.88 126.92,608.00 127.66,608.00 C128.39,608.00 129.00,608.44 129.00,608.98 C129.00,609.52 130.12,610.24 131.50,610.59 C132.88,610.93 134.00,611.62 134.00,612.11 C134.00,612.60 134.68,613.00 135.50,613.00 C136.32,613.00 137.00,613.48 137.00,614.06 C137.00,614.64 137.45,614.84 138.00,614.50 C138.55,614.16 139.00,614.36 139.00,614.94 C139.00,615.52 139.68,616.00 140.50,616.00 C141.32,616.00 142.00,616.48 142.00,617.06 C142.00,617.64 142.45,617.84 143.00,617.50 C143.55,617.16 144.00,617.36 144.00,617.94 C144.00,618.52 144.68,619.00 145.50,619.00 C146.32,619.00 147.00,619.48 147.00,620.06 C147.00,620.64 147.45,620.84 148.00,620.50 C148.55,620.16 149.00,620.36 149.00,620.94 C149.00,621.52 149.68,622.00 150.50,622.00 C151.32,622.00 152.00,622.41 152.00,622.90 C152.00,623.40 153.35,624.27 155.00,624.85 C156.65,625.42 159.57,627.10 161.50,628.57 C163.42,630.04 165.00,630.93 165.00,630.55 C165.00,630.17 165.71,630.56 166.57,631.43 C167.44,632.29 168.79,633.00 169.57,633.00 C170.36,633.00 171.00,633.44 171.00,633.98 C171.00,634.52 172.12,635.24 173.50,635.59 C174.88,635.93 176.00,636.59 176.00,637.04 C176.00,637.50 177.57,638.44 179.50,639.14 C181.43,639.83 183.00,640.84 183.00,641.37 C183.00,641.90 183.27,642.06 183.61,641.73 C183.94,641.39 185.13,641.98 186.26,643.03 C187.38,644.07 188.68,644.69 189.15,644.41 C189.62,644.12 190.00,644.36 190.00,644.94 C190.00,645.52 190.68,646.00 191.50,646.00 C192.32,646.00 193.00,646.48 193.00,647.06 C193.00,647.64 193.45,647.84 194.00,647.50 C194.55,647.16 195.00,647.26 195.00,647.71 C195.00,648.17 197.14,649.66 199.75,651.02 C202.36,652.38 204.65,653.84 204.84,654.26 C205.02,654.67 205.58,654.76 206.09,654.45 C206.59,654.14 207.00,654.36 207.00,654.94 C207.00,655.52 207.64,656.00 208.42,656.00 C209.21,656.00 211.17,657.11 212.78,658.47 C214.40,659.83 216.01,660.66 216.36,660.31 C216.71,659.95 217.00,660.14 217.00,660.72 C217.00,661.31 218.12,662.07 219.50,662.41 C220.88,662.76 222.00,663.48 222.00,664.02 C222.00,664.56 222.68,665.00 223.50,665.00 C224.32,665.00 225.00,665.53 225.00,666.17 C225.00,666.81 225.27,667.06 225.61,666.73 C225.94,666.39 227.13,666.98 228.26,668.03 C229.38,669.07 230.68,669.69 231.15,669.41 C231.62,669.12 232.00,669.36 232.00,669.94 C232.00,670.52 232.64,671.00 233.43,671.00 C234.21,671.00 235.56,671.71 236.43,672.57 C237.29,673.44 238.00,673.87 238.00,673.53 C238.00,673.20 238.97,673.82 240.15,674.93 C241.33,676.03 242.68,676.69 243.15,676.41 C243.62,676.12 244.00,676.35 244.00,676.92 C244.00,677.49 245.12,678.24 246.50,678.59 C247.88,678.93 249.00,679.62 249.00,680.11 C249.00,680.60 249.61,681.00 250.34,681.00 C251.08,681.00 252.97,682.10 254.53,683.44 C256.10,684.79 257.74,685.66 258.19,685.38 C258.63,685.11 259.00,685.36 259.00,685.94 C259.00,686.52 259.67,687.00 260.50,687.00 C261.33,687.00 262.00,687.48 262.00,688.06 C262.00,688.64 262.45,688.84 263.00,688.50 C263.55,688.16 264.00,688.30 264.00,688.82 C264.00,690.08 270.05,692.53 272.25,692.17 C273.21,692.01 274.00,692.35 274.00,692.94 C274.00,694.33 283.68,694.33 284.54,692.93 C284.91,692.34 285.83,692.11 286.60,692.40 C287.37,692.70 288.00,692.56 288.00,692.09 C288.00,691.62 289.46,690.65 291.25,689.93 C293.04,689.21 294.73,688.34 295.00,688.00 C295.27,687.66 296.96,686.79 298.75,686.07 C300.54,685.35 302.00,684.41 302.00,683.99 C302.00,683.56 303.12,682.93 304.50,682.59 C305.88,682.24 307.00,681.56 307.00,681.06 C307.00,680.56 308.58,679.64 310.50,679.00 C312.42,678.36 314.00,677.43 314.00,676.92 C314.00,676.42 314.61,676.00 315.35,676.00 C316.09,676.00 317.73,675.10 319.00,674.00 C320.27,672.90 321.91,672.00 322.65,672.00 C323.39,672.00 324.00,671.58 324.00,671.08 C324.00,670.57 325.58,669.64 327.50,669.00 C329.42,668.36 331.00,667.48 331.00,667.03 C331.00,666.58 332.12,665.93 333.50,665.59 C334.88,665.24 336.00,664.52 336.00,663.98 C336.00,663.44 336.64,663.00 337.43,663.00 C338.21,663.00 339.45,662.42 340.18,661.71 C340.91,661.00 342.96,659.82 344.75,659.09 C346.54,658.36 348.00,657.36 348.00,656.88 C348.00,656.40 348.67,656.00 349.50,656.00 C350.33,656.00 351.00,655.64 351.00,655.20 C351.00,654.76 352.58,653.83 354.50,653.14 C356.42,652.44 358.00,651.50 358.00,651.04 C358.00,650.59 359.12,649.93 360.50,649.59 C361.88,649.24 363.00,648.52 363.00,647.98 C363.00,647.44 363.61,647.00 364.35,647.00 C365.09,647.00 366.73,646.10 368.00,645.00 C369.27,643.90 370.91,643.00 371.65,643.00 C372.39,643.00 373.00,642.56 373.00,642.02 C373.00,641.48 374.12,640.76 375.50,640.41 C376.88,640.07 378.00,639.38 378.00,638.89 C378.00,638.40 378.61,638.00 379.35,638.00 C380.09,638.00 381.73,637.10 383.00,636.00 C384.27,634.90 385.91,634.00 386.65,634.00 C387.39,634.00 388.00,633.58 388.00,633.08 C388.00,632.57 389.58,631.64 391.50,631.00 C393.42,630.36 395.00,629.43 395.00,628.92 C395.00,628.42 395.61,628.00 396.35,628.00 C397.09,628.00 398.73,627.10 400.00,626.00 C401.27,624.90 402.91,624.00 403.65,624.00 C404.39,624.00 405.00,623.55 405.00,623.00 C405.00,622.45 405.67,622.00 406.50,622.00 C407.33,622.00 408.00,621.56 408.00,621.02 C408.00,620.48 409.12,619.76 410.50,619.41 C411.88,619.07 413.00,618.43 413.00,618.00 C413.00,617.57 414.12,616.93 415.50,616.59 C416.88,616.24 418.00,615.52 418.00,614.98 C418.00,614.44 418.64,614.00 419.43,614.00 C420.21,614.00 421.47,613.38 422.23,612.63 C422.98,611.88 424.58,610.95 425.80,610.56 C427.01,610.18 428.00,609.45 428.00,608.93 C428.00,608.42 428.64,608.00 429.43,608.00 C430.21,608.00 431.45,607.42 432.18,606.72 C432.91,606.02 436.09,604.14 439.25,602.56 C442.41,600.97 445.00,599.35 445.00,598.94 C445.00,598.54 446.12,597.93 447.50,597.59 C448.88,597.24 450.00,596.52 450.00,595.98 C450.00,595.44 450.64,595.00 451.43,595.00 C452.21,595.00 453.64,594.22 454.60,593.26 C455.56,592.30 457.28,591.05 458.42,590.49 C459.57,589.93 460.94,588.46 461.49,587.23 C462.03,586.00 462.84,585.00 463.30,585.00 C463.75,585.00 463.84,584.55 463.50,584.00 C463.16,583.45 463.39,583.00 464.00,583.00 C464.61,583.00 464.86,582.58 464.54,582.07 C464.23,581.56 464.36,580.90 464.84,580.60 C465.32,580.30 465.78,561.93 465.86,539.78 C465.93,517.63 466.29,484.07 466.65,465.22 L 467.30 430.93 L 476.90 431.22 L 486.50 431.50 L 486.50 588.50 L 484.18 593.49 C480.98,600.38 473.88,606.75 460.17,615.03 C453.75,618.91 447.83,622.52 447.00,623.04 C439.34,627.93 399.78,650.94 398.13,651.46 C396.96,651.83 396.00,652.47 396.00,652.89 C396.00,653.31 394.02,654.63 391.61,655.84 C389.20,657.04 386.66,658.70 385.99,659.52 C385.31,660.33 383.91,661.00 382.88,661.00 C381.84,661.00 381.00,661.36 381.00,661.79 C381.00,662.23 378.53,663.83 375.52,665.36 C372.50,666.89 369.77,668.56 369.45,669.08 C369.13,669.60 367.43,670.69 365.68,671.50 C362.43,672.99 359.58,674.63 352.50,679.06 C350.30,680.43 347.60,682.09 346.50,682.73 C327.33,693.96 311.89,703.37 311.44,704.09 C311.14,704.59 310.05,705.00 309.02,705.00 C308.00,705.00 307.02,705.35 306.83,705.78 C306.31,707.01 299.14,710.96 293.57,713.07 Z"
         id="path2-outer" />
      <!-- Inner cutout (creates hole when combined with outer) -->
      <path
         d="M 175.44 561.59 C171.82,563.10 166.19,563.43 164.40,562.23 C163.79,561.83 162.83,560.60 162.26,559.50 C160.98,557.02 160.87,396.32 162.15,393.80 C162.62,392.87 163.11,390.96 163.22,389.55 C163.34,388.15 163.79,387.00 164.22,387.00 C164.65,387.00 164.93,386.66 164.84,386.25 C164.28,383.59 173.58,373.00 176.47,373.00 C177.31,373.00 178.00,372.50 178.00,371.89 C178.00,371.28 178.68,371.05 179.50,371.36 C180.32,371.68 181.00,371.55 181.00,371.08 C181.00,370.36 186.33,370.42 197.49,371.28 C198.58,371.36 200.28,372.12 201.27,372.96 C202.26,373.81 203.39,374.50 203.78,374.51 C204.18,374.52 205.75,375.64 207.28,377.01 C218.07,386.66 243.03,410.05 251.03,418.00 C258.17,425.10 270.10,436.30 282.99,448.00 C287.53,452.12 293.36,457.52 295.95,460.00 C298.54,462.48 304.61,468.10 309.45,472.50 C314.29,476.90 321.03,483.20 324.42,486.50 C337.71,499.44 343.85,504.62 349.29,507.49 C353.05,509.48 353.06,509.48 356.73,507.49 L 360.41 505.50 L 360.77 469.02 C360.97,448.95 361.35,432.31 361.62,432.05 C361.88,431.78 366.58,431.39 372.05,431.17 L 382.00 430.77 L 382.00 509.12 L 379.52 514.37 C376.84,520.04 374.46,522.64 369.00,525.89 C362.39,529.83 360.68,530.21 351.84,529.73 C343.59,529.28 336.26,526.97 332.27,523.55 C331.60,522.97 329.21,520.92 326.96,519.00 C324.71,517.08 320.95,513.70 318.61,511.50 C310.57,503.98 296.22,490.83 283.11,479.00 C279.15,475.42 273.32,470.02 270.14,467.00 C266.97,463.98 260.18,457.67 255.06,453.00 C249.93,448.33 242.71,441.58 239.01,438.00 C235.31,434.42 228.06,427.51 222.89,422.63 C217.73,417.75 211.02,411.41 208.00,408.55 C200.11,401.08 192.09,395.00 190.13,395.00 C187.28,395.00 184.30,397.77 183.64,401.03 C183.30,402.74 183.01,438.31 182.99,480.09 C182.95,555.47 182.94,556.06 180.89,558.11 C179.75,559.25 177.30,560.81 175.44,561.59 Z"
         id="path2-inner" />
    </g>
    <!-- Cloud shape -->
    <g
       id="path3-cloud"
       fill="#3b9ed5">
      <path
         d="M 354.46,279.25 c 1.72,1.56 3.17,1.46 7.42,-1.18 13.24,-6.67 32.85,-10.8 45.62,-9.6 31.73,2.98 59.67,22.18 72.55,49.85 3.14,6.75 5.95,16.56 5.95,20.77 0,2.54 0.29,2.69 5.77,3.09 14.96,1.08 30.26,13.59 36.27,29.66 2.85,7.63 2.88,21.35 0.05,29.48 -5.53,15.88 -19.2,27.18 -35.32,29.19 l -5.7,0.71 H 382 l -9.95,0.4 c -5.47,0.22 -10.17,0.61 -10.43,0.88 l -26.81,-0.02 c -19.38,-0.01 -28.69,-0.41 -33.57,-1.44 -20.28,-4.3 -38.32,-21.35 -42.76,-40.41 -1.94,-8.33 -0.84,-23.24 2.27,-30.8 9.69,-23.59 34.46,-38.42 55.84,-33.45 l 3.6,0.84 2.13,-6.63 c 2.97,-9.22 12.93,-24.09 16.14,-24.09 2.03,0 1,-1.58 -2.54,-3.98 0.16,0.1 0.33,0.19 0.5,0.29 l 3.2,1.81 3.72,-3.37 c 2.05,-1.85 5.88,-4.85 8.52,-6.66 4.46,-3.07 4.7,-3.35 3.09,-4.84 z"
         id="cloud-main" />
    </g>
    <!-- 4 NixOS Snowflakes -->
    <g
       id="nixos-snowflakes"
       fill="#3b9ed5">
      <g
         id="snowflake-1"
         transform="matrix(0.12,0,0,0.12,208.21358,647.22088)">
        <path
           d="m 309.40365,-710.2521 122.19683,211.6751 -56.15706,0.5268 -32.6236,-56.8692 -32.85645,56.5653 -27.90237,-0.011 -14.29086,-24.6896 46.81047,-80.4902 -33.22946,-57.8256 z"
           id="path1" />
        <path
           d="m 353.50926,-797.4433 -122.21756,211.6631 -28.53477,-48.37 32.93839,-56.6875 -65.41521,-0.1719 -13.9414,-24.1698 14.23637,-24.721 93.11177,0.2939 33.46371,-57.6903 z"
           id="path2" />
        <path
           d="m 362.88537,-628.243 244.41439,0.012 -27.62229,48.8968 -65.56199,-0.1817 32.55876,56.7371 -13.96098,24.1585 -28.52722,0.032 -46.3013,-80.7841 -66.69317,-0.1353 z"
           id="path3" />
        <path
           d="m 505.14318,-720.9886 -122.19683,-211.6751 56.15706,-0.5268 32.6236,56.8692 32.85645,-56.5653 27.90237,0.011 14.29086,24.6896 -46.81047,80.4902 33.22946,57.8256 z"
           id="path4" />
        <path
           d="m 451.3364,-803.53264 -244.4144,-0.012 27.62229,-48.89685 65.56199,0.18175 -32.55875,-56.73717 13.96097,-24.15851 28.52722,-0.0315 46.3013,80.78414 66.69317,0.13524 z"
           id="path5" />
        <path
           d="m 460.87178,-633.8425 122.21757,-211.66304 28.53477,48.37003 -32.93839,56.68751 65.4152,0.1718 13.9414,24.1698 -14.23636,24.7211 -93.11177,-0.294 -33.46371,57.6904 z"
           id="path6" />
      </g>
      <g
         id="snowflake-2"
         transform="matrix(0.12,0,0,0.12,369.40713,573.52818)">
        <path
           d="m 309.40365,-710.2521 122.19683,211.6751 -56.15706,0.5268 -32.6236,-56.8692 -32.85645,56.5653 -27.90237,-0.011 -14.29086,-24.6896 46.81047,-80.4902 -33.22946,-57.8256 z"
           id="path7" />
        <path
           d="m 353.50926,-797.4433 -122.21756,211.6631 -28.53477,-48.37 32.93839,-56.6875 -65.41521,-0.1719 -13.9414,-24.1698 14.23637,-24.721 93.11177,0.2939 33.46371,-57.6903 z"
           id="path8" />
        <path
           d="m 362.88537,-628.243 244.41439,0.012 -27.62229,48.8968 -65.56199,-0.1817 32.55876,56.7371 -13.96098,24.1585 -28.52722,0.032 -46.3013,-80.7841 -66.69317,-0.1353 z"
           id="path9" />
        <path
           d="m 505.14318,-720.9886 -122.19683,-211.6751 56.15706,-0.5268 32.6236,56.8692 32.85645,-56.5653 27.90237,0.011 14.29086,24.6896 -46.81047,80.4902 33.22946,57.8256 z"
           id="path10" />
        <path
           d="m 451.3364,-803.53264 -244.4144,-0.012 27.62229,-48.89685 65.56199,0.18175 -32.55875,-56.73717 13.96097,-24.15851 28.52722,-0.0315 46.3013,80.78414 66.69317,0.13524 z"
           id="path11" />
        <path
           d="m 460.87178,-633.8425 122.21757,-211.66304 28.53477,48.37003 -32.93839,56.68751 65.4152,0.1718 13.9414,24.1698 -14.23636,24.7211 -93.11177,-0.294 -33.46371,57.6904 z"
           id="path12" />
      </g>
      <g
         id="snowflake-4"
         transform="matrix(0.12,0,0,0.12,319.20001,682.25313)">
        <path
           d="m 309.40365,-710.2521 122.19683,211.6751 -56.15706,0.5268 -32.6236,-56.8692 -32.85645,56.5653 -27.90237,-0.011 -14.29086,-24.6896 46.81047,-80.4902 -33.22946,-57.8256 z"
           id="path19" />
        <path
           d="m 353.50926,-797.4433 -122.21756,211.6631 -28.53477,-48.37 32.93839,-56.6875 -65.41521,-0.1719 -13.9414,-24.1698 14.23637,-24.721 93.11177,0.2939 33.46371,-57.6903 z"
           id="path20" />
        <path
           d="m 362.88537,-628.243 244.41439,0.012 -27.62229,48.8968 -65.56199,-0.1817 32.55876,56.7371 -13.96098,24.1585 -28.52722,0.032 -46.3013,-80.7841 -66.69317,-0.1353 z"
           id="path21" />
        <path
           d="m 505.14318,-720.9886 -122.19683,-211.6751 56.15706,-0.5268 32.6236,56.8692 32.85645,-56.5653 27.90237,0.011 14.29086,24.6896 -46.81047,80.4902 33.22946,57.8256 z"
           id="path22" />
        <path
           d="m 451.3364,-803.53264 -244.4144,-0.012 27.62229,-48.89685 65.56199,0.18175 -32.55875,-56.73717 13.96097,-24.15851 28.52722,-0.0315 46.3013,80.78414 66.69317,0.13524 z"
           id="path23" />
        <path
           d="m 460.87178,-633.8425 122.21757,-211.66304 28.53477,48.37003 -32.93839,56.68751 65.4152,0.1718 13.9414,24.1698 -14.23636,24.7211 -93.11177,-0.294 -33.46371,57.6904 z"
           id="path24" />
      </g>
    </g>
  </g>
</svg>
